<?xml version="1.0" standalone="no"?>
<!DOCTYPE svg PUBLIC "-//W3C//DTD SVG 20010904//EN"
 "http://www.w3.org/TR/2001/REC-SVG-20010904/DTD/svg10.dtd">
<svg version="1.0" xmlns="http://www.w3.org/2000/svg"
 width="260.000000pt" height="260.000000pt" viewBox="0 0 260.000000 260.000000"
 preserveAspectRatio="xMidYMid meet">
<metadata>
Created by potrace 1.11, written by Peter Selinger 2001-2013
</metadata>
<g transform="translate(0.000000,260.000000) scale(0.100000,-0.100000)"
fill="#000000" stroke="none">
<path d="M1395 1958 c-6 -22 -37 -132 -40 -148 -2 -8 -24 -91 -50 -185 -25
-93 -48 -177 -50 -185 -2 -8 -33 -123 -68 -255 -76 -277 -137 -506 -147 -551
l-7 -31 82 1 83 0 16 56 c16 55 180 667 200 750 2 8 34 126 71 262 36 136 68
259 71 273 l4 25 -80 0 c-56 0 -82 -4 -85 -12z"/>
<path d="M615 1485 l-240 -123 -3 -88 -2 -89 251 -128 c138 -71 252 -127 254
-125 2 1 11 32 20 68 9 36 18 73 21 82 4 14 -8 24 -53 44 -32 15 -114 53 -183
86 l-125 60 35 16 c126 59 325 154 328 156 7 8 -43 166 -52 165 -6 -1 -119
-57 -251 -124z"/>
<path d="M1702 1531 c-12 -43 -22 -81 -22 -85 0 -3 26 -18 58 -33 31 -14 113
-52 182 -85 l124 -59 -178 -84 c-98 -46 -180 -86 -183 -88 -4 -5 35 -157 42
-165 2 -2 116 54 254 123 l251 127 0 88 0 88 -250 126 c-137 69 -251 126 -253
126 -2 0 -14 -35 -25 -79z"/>
</g>
</svg>
